<svg xmlns="http://www.w3.org/2000/svg" xmlns:xlink="http://www.w3.org/1999/xlink"       
     width="800px" height="1000px" viewBox="0 0 800 1000">

   <defs>
<svg id="bg" width="108" height="108" xmlns="http://www.w3.org/2000/svg"><g fill="#008591" fill-rule="evenodd"><path d="M0 0h108v108H0z"/><path d="M0 0h108v108H0z"/></g></svg>

<svg id="fg" width="108" height="108" xmlns="http://www.w3.org/2000/svg"><path d="M53.503 57.69c1.322 0 2.357.33 3.107.99.749.661 1.137 1.571 1.166 2.73v5.28c0 1.053.134 1.89.403 2.512v.17h-2.057c-.113-.226-.205-.63-.276-1.209-.911.947-2 1.42-3.265 1.42-1.13 0-2.058-.319-2.783-.959-.724-.64-1.086-1.45-1.086-2.433 0-1.194.454-2.122 1.362-2.782.908-.661 2.185-.992 3.832-.992h1.908v-.9c0-.686-.204-1.232-.614-1.639-.41-.406-1.015-.61-1.813-.61-.7 0-1.287.177-1.76.53-.474.354-.71.782-.71 1.284h-1.972c0-.573.203-1.126.61-1.66.406-.533.957-.955 1.653-1.266a5.564 5.564 0 0 1 2.295-.467zm10.008-2.566V57.9h2.142v1.516H63.51v7.114c0 .46.096.804.286 1.033.191.23.516.345.976.345.226 0 .537-.043.933-.127v1.59a5.686 5.686 0 0 1-1.506.212c-.876 0-1.537-.265-1.982-.795-.446-.53-.668-1.283-.668-2.258v-7.114H59.46v-1.516h2.089v-2.777h1.961zm7.092 0V57.9h2.142v1.516h-2.142v7.114c0 .46.096.804.287 1.033.19.23.516.345.975.345.226 0 .537-.043.933-.127v1.59a5.686 5.686 0 0 1-1.505.212c-.877 0-1.538-.265-1.983-.795-.445-.53-.668-1.283-.668-2.258v-7.114h-2.088v-1.516h2.088v-2.777h1.961zm-28.358 2.565c2.516 0 3.795 1.332 3.837 3.997v7.686h-1.96v-7.57c0-.82-.188-1.433-.563-1.839-.374-.406-1.003-.61-1.887-.61-.728 0-1.332.218-1.813.652-.48.435-.76 1.02-.837 1.755v7.612H37.05v-7.517c0-1.668-.816-2.502-2.449-2.502-1.286 0-2.166.548-2.64 1.644v8.375H30v-11.47h1.855l.053 1.271c.841-.99 1.976-1.484 3.403-1.484 1.605 0 2.697.615 3.276 1.845a4.345 4.345 0 0 1 1.49-1.336c.611-.34 1.334-.509 2.168-.509zm34.92.212v11.47h-1.96v-11.47h1.96zm-21.35 5.905h-1.538c-2.403 0-3.604.703-3.604 2.11 0 .615.205 1.095.615 1.442.41.346.936.519 1.58.519.614 0 1.197-.159 1.748-.477.552-.318.951-.732 1.198-1.24v-2.354zM76.2 53.724c.382 0 .671.11.87.329.197.219.296.487.296.805 0 .319-.099.584-.297.796-.198.212-.487.318-.869.318s-.67-.106-.864-.318a1.132 1.132 0 0 1-.292-.796c0-.318.098-.586.292-.805.194-.22.482-.329.864-.329zM49.507 41.753c1.3 0 2.355.336 3.164 1.007.81.671 1.214 1.53 1.214 2.576h-1.972c0-.537-.228-1-.684-1.389-.456-.388-1.03-.583-1.722-.583-.714 0-1.273.156-1.675.467a1.468 1.468 0 0 0-.605 1.219c0 .473.188.83.562 1.07.375.241 1.051.47 2.03.69.98.219 1.773.48 2.38.784.608.304 1.059.67 1.352 1.098.293.427.44.948.44 1.563 0 1.025-.41 1.847-1.23 2.465-.82.618-1.883.928-3.19.928-.92 0-1.732-.163-2.44-.488-.706-.325-1.259-.78-1.658-1.362a3.283 3.283 0 0 1-.6-1.893h1.962c.035.658.299 1.179.79 1.564.491.385 1.14.578 1.945.578.742 0 1.338-.15 1.787-.45.448-.301.673-.702.673-1.204 0-.53-.2-.942-.6-1.235-.399-.293-1.095-.546-2.088-.758-.993-.212-1.78-.466-2.364-.763-.583-.297-1.014-.65-1.293-1.06-.28-.41-.419-.898-.419-1.463 0-.94.398-1.736 1.193-2.386.795-.65 1.81-.975 3.048-.975zm9.7-2.566v2.778h2.141v1.516h-2.141v7.113c0 .46.095.804.286 1.034.191.23.516.345.975.345.227 0 .538-.043.933-.128v1.59a5.686 5.686 0 0 1-1.505.213c-.876 0-1.537-.265-1.982-.795-.446-.53-.668-1.283-.668-2.259v-7.113h-2.089v-1.516h2.089v-2.778h1.96zM37.675 38l5.905 15.436h-2.088l-1.474-4.029h-6.467L32.1 53.436H30L35.894 38h1.781zm-.89 2.513l-2.619 7.22h5.248l-2.63-7.22z" fill="#FFF" fill-rule="nonzero"/></svg>   </defs>

   <use xlink:href="#bg" x="0px" y="0px"/>
   <use xlink:href="#fg" x="px" y="0px"/>


</svg>
