<svg xmlns="http://www.w3.org/2000/svg" width="184" height="60" viewBox="0 0 184 60">
    <g fill="#FFF" fill-rule="evenodd">
        <path d="M37.817 53.705a.855.855 0 0 0-.566.183c-.147.123-.22.298-.22.528 0 .23.068.415.204.555.137.14.314.247.533.322.219.076.463.148.732.216.27.068.537.15.803.247.265.097.508.218.726.361.22.144.397.347.534.609.136.262.204.576.204.942 0 .639-.26 1.186-.78 1.642-.521.456-1.207.684-2.057.684-.851 0-1.537-.205-2.057-.614-.52-.41-.78-.99-.78-1.744h1.96c.05.603.358.904.925.904.266 0 .474-.07.625-.21a.697.697 0 0 0 .226-.533.714.714 0 0 0-.205-.528 1.426 1.426 0 0 0-.533-.323 7.916 7.916 0 0 0-.732-.22 7.404 7.404 0 0 1-.802-.253 3.92 3.92 0 0 1-.727-.361c-.22-.14-.397-.34-.533-.603a1.993 1.993 0 0 1-.205-.932c0-.703.262-1.266.786-1.69.524-.424 1.194-.635 2.009-.635.814 0 1.473.184 1.976.554.502.37.764.953.786 1.75h-2.003c-.03-.273-.117-.483-.264-.63a.766.766 0 0 0-.565-.22M49.489 52.338v1.4h-2.735v1.626h2.412v1.4h-2.412v1.754h2.735v1.4h-4.576v-7.58zM58.685 52.338h1.841v7.58h-1.841l-3.08-4.77v4.77h-1.841v-7.58h1.841l3.08 4.77zM67.396 53.705a.855.855 0 0 0-.565.183c-.147.123-.22.298-.22.528 0 .23.067.415.204.555.136.14.314.247.533.322.219.076.463.148.732.216.27.068.537.15.802.247.266.097.508.218.727.361.22.144.397.347.533.609s.205.576.205.942c0 .639-.26 1.186-.78 1.642-.521.456-1.207.684-2.058.684-.85 0-1.536-.205-2.056-.614-.52-.41-.78-.99-.78-1.744h1.959c.05.603.359.904.926.904.266 0 .474-.07.624-.21a.697.697 0 0 0 .226-.533.714.714 0 0 0-.204-.528 1.428 1.428 0 0 0-.533-.323 7.916 7.916 0 0 0-.732-.22 7.404 7.404 0 0 1-.803-.253 3.92 3.92 0 0 1-.726-.361c-.22-.14-.397-.34-.533-.603a1.993 1.993 0 0 1-.205-.932c0-.703.262-1.266.786-1.69.524-.424 1.194-.635 2.008-.635.815 0 1.474.184 1.976.554.503.37.765.953.786 1.75h-2.003c-.028-.273-.116-.483-.263-.63a.766.766 0 0 0-.566-.22M79.069 52.338v1.4h-2.735v1.626h2.412v1.4h-2.412v1.754h2.735v1.4h-4.577v-7.58zM86.81 56.925v-2.67l-1.7 2.67h1.7zm-.128 2.994v-1.4h-3.618v-1.487l3.402-4.866h2.057v4.759h.883v1.594h-.883v1.4h-1.841z"/>
        <path d="M98.085 52.36h1.84v7.558h-1.84v-3.133h-2.919v3.133h-1.84V52.36h1.84v3.026h2.919zM108.81 52.338v1.4h-2.736v1.626h2.412v1.4h-2.412v1.754h2.736v1.4h-4.577v-7.58zM115.216 57.248h1.788l-.893-2.692-.895 2.692zm2.671 2.67l-.42-1.27h-2.713l-.42 1.27h-1.96l2.627-7.58h2.24l2.616 7.58h-1.97zM123.454 52.36h1.841v6.158h2.294v1.4h-4.135zM130.787 53.76v-1.4h5.966v1.4h-2.068v6.159h-1.841v-6.16zM145.302 52.36h1.841v7.558h-1.84v-3.133h-2.919v3.133h-1.841V52.36h1.841v3.026h2.918z" opacity=".499"/>
        <path fill-rule="nonzero" d="M22.74 26.374H8.062L4.765 35.52H0L13.38.48h4.042L30.826 35.52h-4.74l-3.345-9.145zM9.458 22.572H21.37L15.401 6.184 9.457 22.572zm40.548 6.04c0-1.203-.453-2.137-1.36-2.803-.906-.666-2.486-1.24-4.74-1.72-2.254-.482-4.043-1.06-5.366-1.733-1.324-.674-2.302-1.476-2.936-2.407-.634-.93-.95-2.037-.95-3.32 0-2.134.902-3.94 2.707-5.415C39.164 9.738 41.47 9 44.278 9c2.952 0 5.346.762 7.183 2.286 1.837 1.524 2.756 3.473 2.756 5.848H49.74c0-1.22-.518-2.27-1.552-3.153-1.035-.882-2.339-1.323-3.91-1.323-1.621 0-2.889.353-3.803 1.059-.915.705-1.372 1.628-1.372 2.767 0 1.075.425 1.885 1.276 2.43.85.546 2.386 1.067 4.608 1.565 2.222.497 4.023 1.09 5.402 1.78 1.38.69 2.403 1.52 3.069 2.491.665.97.998 2.154.998 3.55 0 2.326-.93 4.19-2.791 5.594C49.805 35.298 47.39 36 44.422 36c-2.085 0-3.93-.369-5.534-1.107-1.605-.738-2.86-1.769-3.766-3.092-.907-1.324-1.36-2.756-1.36-4.296h4.452c.08 1.492.678 2.675 1.793 3.55 1.115.874 2.587 1.311 4.415 1.311 1.685 0 3.037-.34 4.055-1.022 1.019-.682 1.528-1.593 1.528-2.732zM66.297 3.176v6.305h4.86v3.441h-4.86V29.07c0 1.042.216 1.824.65 2.346.433.521 1.17.782 2.213.782.514 0 1.22-.096 2.118-.289v3.61c-1.171.32-2.31.481-3.417.481-1.99 0-3.49-.602-4.5-1.805-1.01-1.203-1.516-2.912-1.516-5.125V12.922h-4.74v-3.44h4.74V3.175h4.452zm14.246 6.305l.12 2.888C82.573 10.123 85.147 9 88.388 9c3.641 0 6.12 1.396 7.436 4.187.866-1.251 1.993-2.262 3.38-3.032 1.388-.77 3.029-1.155 4.922-1.155 5.71 0 8.615 3.024 8.71 9.072V35.52h-4.451V18.337c0-1.861-.425-3.253-1.275-4.175-.85-.923-2.278-1.384-4.284-1.384-1.652 0-3.024.493-4.115 1.48-1.09.987-1.724 2.314-1.9 3.983v17.278h-4.477V18.457c0-3.786-1.853-5.679-5.559-5.679-2.92 0-4.917 1.243-5.992 3.73v19.01h-4.451V9.482h4.21zm55.083 26.038c-.257-.514-.466-1.428-.626-2.744-2.07 2.15-4.54 3.225-7.412 3.225-2.567 0-4.672-.726-6.317-2.178-1.644-1.452-2.466-3.293-2.466-5.523 0-2.71 1.03-4.816 3.092-6.316 2.062-1.5 4.961-2.25 8.7-2.25h4.33v-2.046c0-1.556-.464-2.795-1.395-3.718-.93-.922-2.302-1.383-4.115-1.383-1.588 0-2.92.4-3.995 1.203-1.074.802-1.612 1.772-1.612 2.912h-4.476c0-1.3.461-2.555 1.384-3.767.922-1.21 2.174-2.17 3.754-2.875 1.58-.706 3.317-1.059 5.21-1.059 3 0 5.35.75 7.05 2.25 1.701 1.5 2.584 3.565 2.648 6.197V29.43c0 2.39.304 4.292.914 5.704v.385h-4.668zm-7.388-3.393c1.396 0 2.72-.361 3.97-1.083 1.252-.722 2.158-1.66 2.72-2.816v-5.342h-3.49c-5.454 0-8.181 1.596-8.181 4.789 0 1.396.465 2.486 1.395 3.273.93.786 2.126 1.179 3.586 1.179zm24.16-28.95v6.305h4.861v3.441h-4.86V29.07c0 1.042.216 1.824.65 2.346.432.521 1.17.782 2.213.782.513 0 1.22-.096 2.118-.289v3.61c-1.171.32-2.31.481-3.417.481-1.99 0-3.49-.602-4.5-1.805-1.011-1.203-1.516-2.912-1.516-5.125V12.922h-4.741v-3.44h4.74V3.175h4.452zm16.1 0v6.305h4.86v3.441h-4.86V29.07c0 1.042.216 1.824.65 2.346.432.521 1.17.782 2.213.782.513 0 1.22-.096 2.118-.289v3.61c-1.172.32-2.31.481-3.418.481-1.989 0-3.489-.602-4.5-1.805-1.01-1.203-1.516-2.912-1.516-5.125V12.922h-4.74v-3.44h4.74V3.175h4.452zm14.895 32.343h-4.452V9.48h4.452V35.52zM178.58 2.575c0-.722.22-1.332.662-1.829.441-.497 1.095-.746 1.961-.746.867 0 1.524.249 1.973.746.45.497.674 1.107.674 1.829s-.224 1.323-.674 1.805c-.449.481-1.106.722-1.973.722-.866 0-1.52-.241-1.961-.722-.441-.482-.662-1.083-.662-1.805z"/>
    </g>
</svg>
